 <svg xmlns="http://www.w3.org/2000/svg" xmlns:xlink="http://www.w3.org/1999/xlink" version="1.1" width="400" height="400" viewBox="0 -20 164 50" fill="none">
			<rect width="60" height="60" rx="10" fill="#2CB1BC"/>
			<g transform="scale(.180909090909092) translate(1, 1)">
				<defs id="SvgjsDefs2109"></defs><g id="SvgjsG2110" featureKey="ghXSps-0" transform="matrix(2.272727272727273,0,0,2.272727272727273,110.45454545454545,0)" fill="#e3e3e3"><title xmlns="http://www.w3.org/2000/svg">develop</title><path xmlns="http://www.w3.org/2000/svg" d="M33.34,26.83,36.17,24l-2.83-2.83,1.42-1.41,2.83,2.83L39,24l-1.41,1.41-2.83,2.83Zm-20.1-7.07-2.83,2.83L9,24l1.41,1.41,2.83,2.83,1.42-1.41L11.83,24l2.83-2.83ZM46,12V36L24,48,2,36V12L24,0Zm-2,1.19L24,2.28,4,13.19V34.81L24,45.72,44,34.81ZM20.89,32.45l8-16-1.78-.9-8,16Z"></path></g><g id="SvgjsG2111" featureKey="anH1Ye-0" transform="matrix(7.208385131285779,0,0,7.208385131285779,-2.018210141491216,87.76803856142473)" fill="#f6f5f5"><path d="M9.74 5.720000000000001 l-0.000019531 9.8 c0 3.2134 -1.5733 4.82 -4.72 4.82 c-1.4267 0 -2.5734 -0.39 -3.44 -1.17 s-1.3 -1.85 -1.3 -3.21 l0 -1.28 l2.84 0 l0 0.7 c0 0.84 0.15334 1.4367 0.46 1.79 s0.76 0.53 1.36 0.53 c0.57334 0 0.99334 -0.16 1.26 -0.48 s0.4 -0.9 0.4 -1.74 l0 -9.76 l3.14 0 z M17.22 9.38 c1.6533 0 2.96 0.50334 3.92 1.51 s1.44 2.3234 1.44 3.95 c0 1.64 -0.49 2.9566 -1.47 3.95 s-2.2766 1.49 -3.89 1.49 c-1.64 0 -2.94 -0.50334 -3.9 -1.51 s-1.44 -2.3166 -1.44 -3.93 c0 -1.6667 0.49 -2.9934 1.47 -3.98 s2.27 -1.48 3.87 -1.48 z M14.72 14.84 c0 1.0533 0.21334 1.8666 0.64 2.44 s1.0467 0.86 1.86 0.86 c0.84 0 1.47 -0.29334 1.89 -0.88 s0.63 -1.3933 0.63 -2.42 c0 -1.0667 -0.21666 -1.8867 -0.65 -2.46 s-1.0633 -0.86 -1.89 -0.86 c-0.8 0 -1.4133 0.28666 -1.84 0.86 s-0.64 1.3933 -0.64 2.46 z M27.260000000000005 5.720000000000001 l0.000019531 5.2 l0.04 0 c0.30666 -0.46666 0.74332 -0.84 1.31 -1.12 s1.2167 -0.42 1.95 -0.42 c1.2667 0 2.2966 0.50666 3.09 1.52 s1.19 2.32 1.19 3.92 c0 1.6133 -0.39334 2.9266 -1.18 3.94 s-1.8267 1.52 -3.12 1.52 c-1.68 0 -2.8066 -0.53334 -3.38 -1.6 l-0.04 0 l0 1.32 l-2.7 0 l0 -14.28 l2.84 0 z M27.160000000000004 14.84 c0 1 0.21998 1.8 0.65998 2.4 s1.0267 0.9 1.76 0.9 c0.72 0 1.3033 -0.29334 1.75 -0.88 s0.67 -1.3933 0.67 -2.42 c0 -1.0133 -0.21666 -1.82 -0.65 -2.42 s-1.03 -0.9 -1.79 -0.9 c-0.74666 0 -1.3333 0.30666 -1.76 0.92 s-0.64 1.4133 -0.64 2.4 z M38.480000000000004 9.66 l2.34 7.08 l0.04 0 l2.26 -7.08 l2.94 0 l-4.32 11.64 c-0.30666 0.81334 -0.73 1.4067 -1.27 1.78 s-1.29 0.56 -2.25 0.56 c-0.41334 0 -1.0067 -0.03334 -1.78 -0.1 l0 -2.34 c0.50666 0.06666 1.0067 0.1 1.5 0.1 c0.4 0 0.71 -0.12334 0.93 -0.37 s0.33 -0.55666 0.33 -0.93 c0 -0.21334 -0.04 -0.42668 -0.12 -0.64002 l-3.64 -9.7 l3.04 0 z"></path></g><g id="SvgjsG2112" featureKey="XxVAgm-0" transform="matrix(0.6202070023536249,0,0,0.6202070023536249,16.441813047258698,284.40279926805385)" fill="#e3e3e3"><path d="M12.84 18.5 c-1.26 1.1 -2.9 1.7 -4.72 1.7 c-3.76 0 -7.22 -2.96 -7.22 -7.2 s3.46 -7.2 7.22 -7.2 c1.8 0 3.42 0.6 4.66 1.66 l-1.34 1.52 c-0.88 -0.68 -2.02 -1.1 -3.18 -1.1 c-2.72 0 -5.08 2.12 -5.08 5.12 s2.36 5.12 5.08 5.12 c1.18 0 2.36 -0.44 3.24 -1.16 z M37.352000000000004 20 l-1.28 -2.96 l-7.16 0 l-1.28 2.96 l-2.34 0 l6.24 -14 l1.92 0 l6.24 14 l-2.34 0 z M29.712000000000003 15.219999999999999 l5.56 0 l-2.78 -6.44 z M61.884 6 l0 2.04 l-3.72 0 l0 11.96 l-2.2 0 l0 -11.96 l-3.72 0 l0 -2.04 l9.64 0 z M86.876 18.5 c-1.26 1.1 -2.9 1.7 -4.72 1.7 c-3.76 0 -7.22 -2.96 -7.22 -7.2 s3.46 -7.2 7.22 -7.2 c1.8 0 3.42 0.6 4.66 1.66 l-1.34 1.52 c-0.88 -0.68 -2.02 -1.1 -3.18 -1.1 c-2.72 0 -5.08 2.12 -5.08 5.12 s2.36 5.12 5.08 5.12 c1.18 0 2.36 -0.44 3.24 -1.16 z M108.80799999999999 6 l2.2 0 l0 14 l-2.2 0 l0 -5.92 l-6.48 0 l0 5.92 l-2.2 0 l0 -14 l2.2 0 l0 6.04 l6.48 0 l0 -6.04 z M154.232 6 l-5.26 7.76 l0 6.24 l-2.2 0 l0 -6.24 l-5.26 -7.76 l2.5 0 l3.86 5.76 l3.86 -5.76 l2.5 0 z M174.284 5.800000000000001 c3.76 0 7.2 2.96 7.2 7.2 s-3.44 7.2 -7.2 7.2 s-7.2 -2.96 -7.2 -7.2 s3.44 -7.2 7.2 -7.2 z M174.284 18.12 c2.58 0 4.92 -2.12 4.92 -5.12 s-2.34 -5.12 -4.92 -5.12 s-4.92 2.12 -4.92 5.12 s2.34 5.12 4.92 5.12 z M203.176 6 l2.2 0 l0 8.92 c0 3.42 -2.34 5.38 -5.22 5.38 s-5.22 -1.96 -5.22 -5.38 l0 -8.92 l2.2 0 l0 8.92 c0 2.38 1.46 3.3 3.02 3.3 s3.02 -0.92 3.02 -3.3 l0 -8.92 z M229.728 20 l-2.36 0 l-3.3 -4.88 l-0.24 0 l-2.5 0 l0 4.88 l-2.2 0 l0 -14 l4.7 0 c3.14 0 5.06 1.92 5.06 4.62 c0 1.96 -1.02 3.46 -2.78 4.12 z M221.328 8.04 l0 5.16 l2.4 0 c1.78 0 2.96 -0.84 2.96 -2.58 s-1.18 -2.58 -2.96 -2.58 l-2.4 0 z M264.752 6 c4.04 0 7.08 3.1 7.08 6.96 c0 3.94 -3.04 7.04 -7.08 7.04 l-4.52 0 l0 -14 l4.52 0 z M264.73199999999997 17.92 c3.06 0 4.86 -2.22 4.86 -4.96 c0 -2.66 -1.8 -4.88 -4.86 -4.88 l-2.3 0 l0 9.84 l2.3 0 z M295.784 20 l-2.36 0 l-3.3 -4.88 l-0.24 0 l-2.5 0 l0 4.88 l-2.2 0 l0 -14 l4.7 0 c3.14 0 5.06 1.92 5.06 4.62 c0 1.96 -1.02 3.46 -2.78 4.12 z M287.38399999999996 8.04 l0 5.16 l2.4 0 c1.78 0 2.96 -0.84 2.96 -2.58 s-1.18 -2.58 -2.96 -2.58 l-2.4 0 z M311.13599999999997 17.96 l6.34 0 l0 2.04 l-6.74 0 l-1.8 0 l0 -14 l2.2 0 l6.16 0 l0 2.04 l-6.16 0 l0 3.92 l4.74 0 l0 2 l-4.74 0 l0 4 z M341.788 20 l-1.28 -2.96 l-7.16 0 l-1.28 2.96 l-2.34 0 l6.24 -14 l1.92 0 l6.24 14 l-2.34 0 z M334.148 15.219999999999999 l5.56 0 l-2.78 -6.44 z M371.84000000000003 6 l0 14 l-2.26 0 l0 -9.06 l-4.2 9.06 l-1.86 0 l-4.18 -9.04 l0 9.04 l-2.26 0 l0 -14 l2.18 0 l5.2 11.02 l5.2 -11.02 l2.18 0 z M410.944 6 l0 9.3 c0 3.64 -2.46 4.94 -4.6 4.94 c-1.9 0 -3.22 -0.8 -4 -1.92 l1.34 -1.58 c0.54 0.74 1.42 1.38 2.56 1.38 c1.18 0 2.5 -0.58 2.5 -3.08 l0 -9.04 l2.2 0 z M431.59600000000006 5.800000000000001 c3.76 0 7.2 2.96 7.2 7.2 s-3.44 7.2 -7.2 7.2 s-7.2 -2.96 -7.2 -7.2 s3.44 -7.2 7.2 -7.2 z M431.59600000000006 18.12 c2.58 0 4.92 -2.12 4.92 -5.12 s-2.34 -5.12 -4.92 -5.12 s-4.92 2.12 -4.92 5.12 s2.34 5.12 4.92 5.12 z M459.4080000000001 12.280000000000001 c1.68 0.4 2.98 1.84 2.98 3.68 c0 2.5 -1.6 4.04 -5.08 4.04 l-5.06 0 l0 -14 l4.96 0 c2.82 0 4.22 1.6 4.22 3.44 c0 1.4 -0.84 2.38 -2.02 2.84 z M457.0280000000001 7.9399999999999995 l-2.58 0 l0 3.66 l2.58 0 c1.44 0 2.22 -0.76 2.22 -1.84 c0 -1.14 -0.78 -1.82 -2.22 -1.82 z M457.2080000000001 18.06 c2.06 0 2.98 -0.84 2.98 -2.34 c0 -1.28 -0.92 -2.32 -2.98 -2.32 l-2.76 0 l0 4.66 l2.76 0 z M478.12000000000006 6 l0 9.8 l-2.46 0 l0 -9.8 l2.46 0 z M476.90000000000003 20.1 c-0.76 0 -1.26 -0.5 -1.26 -1.26 s0.5 -1.26 1.26 -1.26 s1.26 0.5 1.26 1.26 s-0.5 1.26 -1.26 1.26 z"></path></g>
			</g>
		</svg>
	